# xmcd
#
# Track frame offsets:
#	150
#	19818
#	36737
#	50048
#	66916
#	82292
#	96579
#	107341
#	118736
#	131141
#	146864
#	157047
#	170843
#	186549
#	198296
#	218782
#	236977
#	252229
#	266675
#	281736
#
# Disc length: 3970 seconds
#
# Revision: 1
# Processed by: cddbd v1.5.2PL0 Copyright (c) Steve Scherf et al.
# Submitted via: audiograbber 1.83.01
#
DISCID=510f8014
DTITLE=CT-6 - CT-6
DYEAR=1900
DGENRE=Country Trakks
TTITLE0=THROUGH THE YEARS - KENNY ROGERS 
TTITLE1=DUST ON THE BOTTLE - DAVID LEE MURPHY 
TTITLE2=LIFE GETS AWAY - CLINT BLACK
TTITLE3=BACK IN YOUR ARMS AGAIN - LORRIE MORGAN 
TTITLE4=TIME OF MY LIFE - GEORGE FOX
TTITLE5=LET'S GO TO VEGAS - FAITH HILL
TTITLE6=BORN IN THE DARK - DOUG STONE
TTITLE7=TALKIN' LOVE - PRESCOTT - BROWN 
TTITLE8=ANCIENT HISTORY - PRAIRIE OYSTER 
TTITLE9=YOU HAVE THE RIGHT TO REMAIN SILENT - PERFECT STRANGER 
TTITLE10=RUB-A-DUBBIN - KEN MELLONS
TTITLE11=LIFE IS BUT A DREAM - JOEL FEENEY
TTITLE12=HELLO CRUEL WORLD - GEORGE DUCAS 
TTITLE13=WHAT MORE DO YOU WANT FROM ME - RHONDA VINCENT 
TTITLE14=ON MY OWN - REBA MCENTIRE
TTITLE15=YOU FEEL THE SAME WAY TOO - RANKIN FAMILY 
TTITLE16=WALKING TO JERUSALEM - TRACY BYRD
TTITLE17=JENNY COME BACK - HELEN DARLING
TTITLE18=DOWN IN TENNESSEE - MARK CHESNUTT
TTITLE19=HEART OF SATURDAY NIGHT - HOLLY COLE 
EXTD=
EXTT0=
EXTT1=
EXTT2=
EXTT3=
EXTT4=
EXTT5=
EXTT6=
EXTT7=
EXTT8=
EXTT9=
EXTT10=
EXTT11=
EXTT12=
EXTT13=
EXTT14=
EXTT15=
EXTT16=
EXTT17=
EXTT18=
EXTT19=
PLAYORDER=
